<?xml version="1.0" encoding="utf-8" standalone="no"?>
<!DOCTYPE svg PUBLIC "-//W3C//DTD SVG 1.1//EN"
  "http://www.w3.org/Graphics/SVG/1.1/DTD/svg11.dtd">
<svg xmlns:xlink="http://www.w3.org/1999/xlink" width="720pt" height="432pt" viewBox="0 0 720 432" xmlns="http://www.w3.org/2000/svg" version="1.1">
 <metadata>
  <rdf:RDF xmlns:dc="http://purl.org/dc/elements/1.1/" xmlns:cc="http://creativecommons.org/ns#" xmlns:rdf="http://www.w3.org/1999/02/22-rdf-syntax-ns#">
   <cc:Work>
    <dc:type rdf:resource="http://purl.org/dc/dcmitype/StillImage"/>
    <dc:date>2023-12-21T14:10:01.926530</dc:date>
    <dc:format>image/svg+xml</dc:format>
    <dc:creator>
     <cc:Agent>
      <dc:title>Matplotlib v3.7.1, https://matplotlib.org/</dc:title>
     </cc:Agent>
    </dc:creator>
   </cc:Work>
  </rdf:RDF>
 </metadata>
 <defs>
  <style type="text/css">*{stroke-linejoin: round; stroke-linecap: butt}</style>
 </defs>
 <g id="figure_1">
  <g id="patch_1">
   <path d="M 0 432
L 720 432
L 720 0
L 0 0
z
" style="fill: #ffffff"/>
  </g>
  <g id="axes_1">
   <g id="patch_2">
    <path d="M 90 384.48
L 648 384.48
L 648 51.84
L 90 51.84
z
" style="fill: #e5e5e5"/>
   </g>
   <g id="matplotlib.axis_1">
    <g id="xtick_1">
     <g id="line2d_1">
      <path d="M 113.966191 384.48
L 113.966191 51.84
" clip-path="url(#pef18c6fa19)" style="fill: none; stroke: #ffffff; stroke-width: 0.8; stroke-linecap: round"/>
     </g>
     <g id="line2d_2"/>
     <g id="text_1">
      <!-- 0 -->
      <g style="fill: #555555" transform="translate(110.629628 396.67625) scale(0.12 -0.12)">
       <defs>
        <path id="LiberationSans-30" d="M 3309 2203
Q 3309 1569 3189 1136
Q 3069 703 2861 436
Q 2653 169 2372 53
Q 2091 -63 1772 -63
Q 1450 -63 1172 53
Q 894 169 689 434
Q 484 700 367 1133
Q 250 1566 250 2203
Q 250 2869 367 3305
Q 484 3741 690 4000
Q 897 4259 1178 4364
Q 1459 4469 1791 4469
Q 2106 4469 2382 4364
Q 2659 4259 2865 4000
Q 3072 3741 3190 3305
Q 3309 2869 3309 2203
z
M 2738 2203
Q 2738 2728 2675 3076
Q 2613 3425 2491 3633
Q 2369 3841 2192 3927
Q 2016 4013 1791 4013
Q 1553 4013 1372 3925
Q 1191 3838 1067 3630
Q 944 3422 881 3073
Q 819 2725 819 2203
Q 819 1697 883 1350
Q 947 1003 1070 792
Q 1194 581 1372 489
Q 1550 397 1778 397
Q 2000 397 2178 489
Q 2356 581 2479 792
Q 2603 1003 2670 1350
Q 2738 1697 2738 2203
z
" transform="scale(0.015625)"/>
       </defs>
       <use xlink:href="#LiberationSans-30"/>
      </g>
     </g>
    </g>
    <g id="xtick_2">
     <g id="line2d_3">
      <path d="M 183.838467 384.48
L 183.838467 51.84
" clip-path="url(#pef18c6fa19)" style="fill: none; stroke: #ffffff; stroke-width: 0.8; stroke-linecap: round"/>
     </g>
     <g id="line2d_4"/>
     <g id="text_2">
      <!-- 50 -->
      <g style="fill: #555555" transform="translate(177.165342 396.67625) scale(0.12 -0.12)">
       <defs>
        <path id="LiberationSans-35" d="M 3291 1434
Q 3291 1103 3191 828
Q 3091 553 2894 354
Q 2697 156 2405 46
Q 2113 -63 1728 -63
Q 1381 -63 1123 18
Q 866 100 687 242
Q 509 384 404 575
Q 300 766 256 984
L 825 1050
Q 859 925 921 808
Q 984 691 1092 598
Q 1200 506 1358 451
Q 1516 397 1741 397
Q 1959 397 2137 464
Q 2316 531 2442 662
Q 2569 794 2637 984
Q 2706 1175 2706 1422
Q 2706 1625 2640 1795
Q 2575 1966 2453 2089
Q 2331 2213 2154 2281
Q 1978 2350 1753 2350
Q 1613 2350 1494 2325
Q 1375 2300 1273 2256
Q 1172 2213 1089 2155
Q 1006 2097 934 2034
L 384 2034
L 531 4403
L 3034 4403
L 3034 3925
L 1044 3925
L 959 2528
Q 1109 2644 1334 2726
Q 1559 2809 1869 2809
Q 2197 2809 2459 2709
Q 2722 2609 2906 2426
Q 3091 2244 3191 1991
Q 3291 1738 3291 1434
z
" transform="scale(0.015625)"/>
       </defs>
       <use xlink:href="#LiberationSans-35"/>
       <use xlink:href="#LiberationSans-30" x="55.615234"/>
      </g>
     </g>
    </g>
    <g id="xtick_3">
     <g id="line2d_5">
      <path d="M 253.710744 384.48
L 253.710744 51.84
" clip-path="url(#pef18c6fa19)" style="fill: none; stroke: #ffffff; stroke-width: 0.8; stroke-linecap: round"/>
     </g>
     <g id="line2d_6"/>
     <g id="text_3">
      <!-- 100 -->
      <g style="fill: #555555" transform="translate(243.701056 396.67625) scale(0.12 -0.12)">
       <defs>
        <path id="LiberationSans-31" d="M 488 0
L 488 478
L 1609 478
L 1609 3866
L 616 3156
L 616 3688
L 1656 4403
L 2175 4403
L 2175 478
L 3247 478
L 3247 0
L 488 0
z
" transform="scale(0.015625)"/>
       </defs>
       <use xlink:href="#LiberationSans-31"/>
       <use xlink:href="#LiberationSans-30" x="55.615234"/>
       <use xlink:href="#LiberationSans-30" x="111.230469"/>
      </g>
     </g>
    </g>
    <g id="xtick_4">
     <g id="line2d_7">
      <path d="M 323.58302 384.48
L 323.58302 51.84
" clip-path="url(#pef18c6fa19)" style="fill: none; stroke: #ffffff; stroke-width: 0.8; stroke-linecap: round"/>
     </g>
     <g id="line2d_8"/>
     <g id="text_4">
      <!-- 150 -->
      <g style="fill: #555555" transform="translate(313.573333 396.67625) scale(0.12 -0.12)">
       <use xlink:href="#LiberationSans-31"/>
       <use xlink:href="#LiberationSans-35" x="55.615234"/>
       <use xlink:href="#LiberationSans-30" x="111.230469"/>
      </g>
     </g>
    </g>
    <g id="xtick_5">
     <g id="line2d_9">
      <path d="M 393.455297 384.48
L 393.455297 51.84
" clip-path="url(#pef18c6fa19)" style="fill: none; stroke: #ffffff; stroke-width: 0.8; stroke-linecap: round"/>
     </g>
     <g id="line2d_10"/>
     <g id="text_5">
      <!-- 200 -->
      <g style="fill: #555555" transform="translate(383.445609 396.67625) scale(0.12 -0.12)">
       <defs>
        <path id="LiberationSans-32" d="M 322 0
L 322 397
Q 481 763 711 1042
Q 941 1322 1194 1548
Q 1447 1775 1695 1969
Q 1944 2163 2144 2356
Q 2344 2550 2467 2762
Q 2591 2975 2591 3244
Q 2591 3431 2534 3573
Q 2478 3716 2372 3812
Q 2266 3909 2117 3957
Q 1969 4006 1788 4006
Q 1619 4006 1470 3959
Q 1322 3913 1206 3819
Q 1091 3725 1017 3586
Q 944 3447 922 3263
L 347 3316
Q 375 3553 478 3762
Q 581 3972 762 4130
Q 944 4288 1198 4378
Q 1453 4469 1788 4469
Q 2116 4469 2372 4391
Q 2628 4313 2804 4159
Q 2981 4006 3075 3781
Q 3169 3556 3169 3263
Q 3169 3041 3089 2841
Q 3009 2641 2876 2459
Q 2744 2278 2569 2109
Q 2394 1941 2203 1780
Q 2013 1619 1819 1461
Q 1625 1303 1454 1143
Q 1284 984 1150 820
Q 1016 656 941 478
L 3238 478
L 3238 0
L 322 0
z
" transform="scale(0.015625)"/>
       </defs>
       <use xlink:href="#LiberationSans-32"/>
       <use xlink:href="#LiberationSans-30" x="55.615234"/>
       <use xlink:href="#LiberationSans-30" x="111.230469"/>
      </g>
     </g>
    </g>
    <g id="xtick_6">
     <g id="line2d_11">
      <path d="M 463.327573 384.48
L 463.327573 51.84
" clip-path="url(#pef18c6fa19)" style="fill: none; stroke: #ffffff; stroke-width: 0.8; stroke-linecap: round"/>
     </g>
     <g id="line2d_12"/>
     <g id="text_6">
      <!-- 250 -->
      <g style="fill: #555555" transform="translate(453.317886 396.67625) scale(0.12 -0.12)">
       <use xlink:href="#LiberationSans-32"/>
       <use xlink:href="#LiberationSans-35" x="55.615234"/>
       <use xlink:href="#LiberationSans-30" x="111.230469"/>
      </g>
     </g>
    </g>
    <g id="xtick_7">
     <g id="line2d_13">
      <path d="M 533.19985 384.48
L 533.19985 51.84
" clip-path="url(#pef18c6fa19)" style="fill: none; stroke: #ffffff; stroke-width: 0.8; stroke-linecap: round"/>
     </g>
     <g id="line2d_14"/>
     <g id="text_7">
      <!-- 300 -->
      <g style="fill: #555555" transform="translate(523.190162 396.67625) scale(0.12 -0.12)">
       <defs>
        <path id="LiberationSans-33" d="M 3278 1216
Q 3278 913 3179 675
Q 3081 438 2892 273
Q 2703 109 2423 23
Q 2144 -63 1784 -63
Q 1375 -63 1095 39
Q 816 141 634 308
Q 453 475 362 689
Q 272 903 244 1131
L 825 1184
Q 850 1009 917 865
Q 984 722 1100 619
Q 1216 516 1384 459
Q 1553 403 1784 403
Q 2209 403 2451 612
Q 2694 822 2694 1234
Q 2694 1478 2586 1626
Q 2478 1775 2317 1858
Q 2156 1941 1967 1969
Q 1778 1997 1619 1997
L 1300 1997
L 1300 2484
L 1606 2484
Q 1766 2484 1937 2517
Q 2109 2550 2251 2636
Q 2394 2722 2486 2869
Q 2578 3016 2578 3244
Q 2578 3597 2370 3801
Q 2163 4006 1753 4006
Q 1381 4006 1151 3815
Q 922 3625 884 3278
L 319 3322
Q 353 3613 478 3828
Q 603 4044 795 4186
Q 988 4328 1234 4398
Q 1481 4469 1759 4469
Q 2128 4469 2393 4376
Q 2659 4284 2828 4126
Q 2997 3969 3076 3756
Q 3156 3544 3156 3303
Q 3156 3109 3103 2940
Q 3050 2772 2937 2637
Q 2825 2503 2651 2406
Q 2478 2309 2234 2259
L 2234 2247
Q 2500 2219 2697 2126
Q 2894 2034 3022 1896
Q 3150 1759 3214 1584
Q 3278 1409 3278 1216
z
" transform="scale(0.015625)"/>
       </defs>
       <use xlink:href="#LiberationSans-33"/>
       <use xlink:href="#LiberationSans-30" x="55.615234"/>
       <use xlink:href="#LiberationSans-30" x="111.230469"/>
      </g>
     </g>
    </g>
    <g id="xtick_8">
     <g id="line2d_15">
      <path d="M 603.072126 384.48
L 603.072126 51.84
" clip-path="url(#pef18c6fa19)" style="fill: none; stroke: #ffffff; stroke-width: 0.8; stroke-linecap: round"/>
     </g>
     <g id="line2d_16"/>
     <g id="text_8">
      <!-- 350 -->
      <g style="fill: #555555" transform="translate(593.062439 396.67625) scale(0.12 -0.12)">
       <use xlink:href="#LiberationSans-33"/>
       <use xlink:href="#LiberationSans-35" x="55.615234"/>
       <use xlink:href="#LiberationSans-30" x="111.230469"/>
      </g>
     </g>
    </g>
    <g id="text_9">
     <!-- Day -->
     <g style="fill: #555555" transform="translate(356.196375 413.60175) scale(0.144 -0.144)">
      <defs>
       <path id="LiberationSans-44" d="M 4316 2247
Q 4316 1697 4150 1276
Q 3984 856 3696 573
Q 3409 291 3017 145
Q 2625 0 2172 0
L 525 0
L 525 4403
L 1981 4403
Q 2491 4403 2920 4276
Q 3350 4150 3659 3886
Q 3969 3622 4142 3215
Q 4316 2809 4316 2247
z
M 3716 2247
Q 3716 2694 3587 3011
Q 3459 3328 3228 3531
Q 2997 3734 2675 3829
Q 2353 3925 1969 3925
L 1122 3925
L 1122 478
L 2103 478
Q 2450 478 2745 590
Q 3041 703 3256 925
Q 3472 1147 3594 1478
Q 3716 1809 3716 2247
z
" transform="scale(0.015625)"/>
       <path id="LiberationSans-61" d="M 1294 -63
Q 784 -63 528 206
Q 272 475 272 944
Q 272 1278 398 1492
Q 525 1706 729 1828
Q 934 1950 1196 1997
Q 1459 2044 1731 2050
L 2491 2063
L 2491 2247
Q 2491 2456 2447 2603
Q 2403 2750 2312 2840
Q 2222 2931 2086 2973
Q 1950 3016 1766 3016
Q 1603 3016 1472 2992
Q 1341 2969 1244 2908
Q 1147 2847 1087 2742
Q 1028 2638 1009 2478
L 422 2531
Q 453 2731 540 2898
Q 628 3066 789 3187
Q 950 3309 1192 3376
Q 1434 3444 1778 3444
Q 2416 3444 2737 3151
Q 3059 2859 3059 2306
L 3059 850
Q 3059 600 3125 473
Q 3191 347 3375 347
Q 3422 347 3469 353
Q 3516 359 3559 369
L 3559 19
Q 3453 -6 3348 -18
Q 3244 -31 3125 -31
Q 2966 -31 2852 11
Q 2738 53 2666 139
Q 2594 225 2556 351
Q 2519 478 2509 647
L 2491 647
Q 2400 484 2292 353
Q 2184 222 2040 130
Q 1897 38 1714 -12
Q 1531 -63 1294 -63
z
M 1422 359
Q 1691 359 1892 457
Q 2094 556 2226 709
Q 2359 863 2425 1044
Q 2491 1225 2491 1391
L 2491 1669
L 1875 1656
Q 1669 1653 1483 1626
Q 1297 1600 1156 1522
Q 1016 1444 933 1303
Q 850 1163 850 934
Q 850 659 998 509
Q 1147 359 1422 359
z
" transform="scale(0.015625)"/>
       <path id="LiberationSans-79" d="M 1888 0
Q 1769 -306 1645 -551
Q 1522 -797 1369 -970
Q 1216 -1144 1028 -1236
Q 841 -1328 597 -1328
Q 491 -1328 400 -1322
Q 309 -1316 209 -1294
L 209 -872
Q 269 -881 344 -886
Q 419 -891 472 -891
Q 719 -891 931 -706
Q 1144 -522 1303 -119
L 1356 16
L 16 3381
L 616 3381
L 1328 1513
Q 1359 1428 1407 1287
Q 1456 1147 1504 1006
Q 1553 866 1590 753
Q 1628 641 1634 613
Q 1644 647 1680 748
Q 1716 850 1761 975
Q 1806 1100 1853 1228
Q 1900 1356 1931 1450
L 2594 3381
L 3188 3381
L 1888 0
z
" transform="scale(0.015625)"/>
      </defs>
      <use xlink:href="#LiberationSans-44"/>
      <use xlink:href="#LiberationSans-61" x="72.216797"/>
      <use xlink:href="#LiberationSans-79" x="127.832031"/>
     </g>
    </g>
   </g>
   <g id="matplotlib.axis_2">
    <g id="ytick_1">
     <g id="line2d_17">
      <path d="M 90 370.169505
L 648 370.169505
" clip-path="url(#pef18c6fa19)" style="fill: none; stroke: #ffffff; stroke-width: 0.8; stroke-linecap: round"/>
     </g>
     <g id="line2d_18"/>
     <g id="text_10">
      <!-- 0 -->
      <g style="fill: #555555" transform="translate(79.826875 374.51763) scale(0.12 -0.12)">
       <use xlink:href="#LiberationSans-30"/>
      </g>
     </g>
    </g>
    <g id="ytick_2">
     <g id="line2d_19">
      <path d="M 90 322.61459
L 648 322.61459
" clip-path="url(#pef18c6fa19)" style="fill: none; stroke: #ffffff; stroke-width: 0.8; stroke-linecap: round"/>
     </g>
     <g id="line2d_20"/>
     <g id="text_11">
      <!-- 10 -->
      <g style="fill: #555555" transform="translate(73.15375 326.962715) scale(0.12 -0.12)">
       <use xlink:href="#LiberationSans-31"/>
       <use xlink:href="#LiberationSans-30" x="55.615234"/>
      </g>
     </g>
    </g>
    <g id="ytick_3">
     <g id="line2d_21">
      <path d="M 90 275.059674
L 648 275.059674
" clip-path="url(#pef18c6fa19)" style="fill: none; stroke: #ffffff; stroke-width: 0.8; stroke-linecap: round"/>
     </g>
     <g id="line2d_22"/>
     <g id="text_12">
      <!-- 20 -->
      <g style="fill: #555555" transform="translate(73.15375 279.407799) scale(0.12 -0.12)">
       <use xlink:href="#LiberationSans-32"/>
       <use xlink:href="#LiberationSans-30" x="55.615234"/>
      </g>
     </g>
    </g>
    <g id="ytick_4">
     <g id="line2d_23">
      <path d="M 90 227.504758
L 648 227.504758
" clip-path="url(#pef18c6fa19)" style="fill: none; stroke: #ffffff; stroke-width: 0.8; stroke-linecap: round"/>
     </g>
     <g id="line2d_24"/>
     <g id="text_13">
      <!-- 30 -->
      <g style="fill: #555555" transform="translate(73.15375 231.852883) scale(0.12 -0.12)">
       <use xlink:href="#LiberationSans-33"/>
       <use xlink:href="#LiberationSans-30" x="55.615234"/>
      </g>
     </g>
    </g>
    <g id="ytick_5">
     <g id="line2d_25">
      <path d="M 90 179.949842
L 648 179.949842
" clip-path="url(#pef18c6fa19)" style="fill: none; stroke: #ffffff; stroke-width: 0.8; stroke-linecap: round"/>
     </g>
     <g id="line2d_26"/>
     <g id="text_14">
      <!-- 40 -->
      <g style="fill: #555555" transform="translate(73.15375 184.297967) scale(0.12 -0.12)">
       <defs>
        <path id="LiberationSans-34" d="M 2753 997
L 2753 0
L 2222 0
L 2222 997
L 147 997
L 147 1434
L 2163 4403
L 2753 4403
L 2753 1441
L 3372 1441
L 3372 997
L 2753 997
z
M 2222 3769
Q 2216 3753 2191 3708
Q 2166 3663 2134 3606
Q 2103 3550 2070 3492
Q 2038 3434 2013 3397
L 884 1734
Q 869 1709 839 1668
Q 809 1628 778 1586
Q 747 1544 715 1503
Q 684 1463 666 1441
L 2222 1441
L 2222 3769
z
" transform="scale(0.015625)"/>
       </defs>
       <use xlink:href="#LiberationSans-34"/>
       <use xlink:href="#LiberationSans-30" x="55.615234"/>
      </g>
     </g>
    </g>
    <g id="ytick_6">
     <g id="line2d_27">
      <path d="M 90 132.394926
L 648 132.394926
" clip-path="url(#pef18c6fa19)" style="fill: none; stroke: #ffffff; stroke-width: 0.8; stroke-linecap: round"/>
     </g>
     <g id="line2d_28"/>
     <g id="text_15">
      <!-- 50 -->
      <g style="fill: #555555" transform="translate(73.15375 136.743051) scale(0.12 -0.12)">
       <use xlink:href="#LiberationSans-35"/>
       <use xlink:href="#LiberationSans-30" x="55.615234"/>
      </g>
     </g>
    </g>
    <g id="ytick_7">
     <g id="line2d_29">
      <path d="M 90 84.840011
L 648 84.840011
" clip-path="url(#pef18c6fa19)" style="fill: none; stroke: #ffffff; stroke-width: 0.8; stroke-linecap: round"/>
     </g>
     <g id="line2d_30"/>
     <g id="text_16">
      <!-- 60 -->
      <g style="fill: #555555" transform="translate(73.15375 89.188136) scale(0.12 -0.12)">
       <defs>
        <path id="LiberationSans-36" d="M 3278 1441
Q 3278 1109 3186 832
Q 3094 556 2914 357
Q 2734 159 2468 48
Q 2203 -63 1856 -63
Q 1472 -63 1184 84
Q 897 231 706 507
Q 516 784 420 1186
Q 325 1588 325 2100
Q 325 2688 433 3131
Q 541 3575 744 3872
Q 947 4169 1239 4319
Q 1531 4469 1900 4469
Q 2125 4469 2322 4422
Q 2519 4375 2680 4270
Q 2841 4166 2962 3994
Q 3084 3822 3156 3572
L 2619 3475
Q 2531 3759 2339 3886
Q 2147 4013 1894 4013
Q 1663 4013 1475 3903
Q 1288 3794 1156 3576
Q 1025 3359 954 3031
Q 884 2703 884 2266
Q 1038 2550 1316 2698
Q 1594 2847 1953 2847
Q 2253 2847 2497 2750
Q 2741 2653 2914 2470
Q 3088 2288 3183 2027
Q 3278 1766 3278 1441
z
M 2706 1416
Q 2706 1644 2650 1828
Q 2594 2013 2481 2142
Q 2369 2272 2203 2342
Q 2038 2413 1819 2413
Q 1666 2413 1509 2367
Q 1353 2322 1226 2220
Q 1100 2119 1020 1953
Q 941 1788 941 1550
Q 941 1306 1003 1095
Q 1066 884 1183 728
Q 1300 572 1465 481
Q 1631 391 1838 391
Q 2041 391 2202 461
Q 2363 531 2475 664
Q 2588 797 2647 987
Q 2706 1178 2706 1416
z
" transform="scale(0.015625)"/>
       </defs>
       <use xlink:href="#LiberationSans-36"/>
       <use xlink:href="#LiberationSans-30" x="55.615234"/>
      </g>
     </g>
    </g>
    <g id="text_17">
     <!-- Beta (degrees) -->
     <g style="fill: #555555" transform="translate(66.16575 265.782375) rotate(-90) scale(0.144 -0.144)">
      <defs>
       <path id="LiberationSans-42" d="M 3931 1241
Q 3931 906 3800 670
Q 3669 434 3447 286
Q 3225 138 2931 69
Q 2638 0 2313 0
L 525 0
L 525 4403
L 2125 4403
Q 2491 4403 2778 4342
Q 3066 4281 3266 4150
Q 3466 4019 3570 3817
Q 3675 3616 3675 3334
Q 3675 3150 3623 2987
Q 3572 2825 3467 2692
Q 3363 2559 3205 2464
Q 3047 2369 2838 2322
Q 3103 2291 3308 2200
Q 3513 2109 3650 1968
Q 3788 1828 3859 1642
Q 3931 1456 3931 1241
z
M 3075 3263
Q 3075 3619 2831 3772
Q 2588 3925 2125 3925
L 1122 3925
L 1122 2531
L 2125 2531
Q 2388 2531 2569 2582
Q 2750 2634 2862 2729
Q 2975 2825 3025 2959
Q 3075 3094 3075 3263
z
M 3328 1288
Q 3328 1497 3251 1644
Q 3175 1791 3031 1884
Q 2888 1978 2686 2022
Q 2484 2066 2234 2066
L 1122 2066
L 1122 478
L 2281 478
Q 2509 478 2701 515
Q 2894 553 3033 647
Q 3172 741 3250 897
Q 3328 1053 3328 1288
z
" transform="scale(0.015625)"/>
       <path id="LiberationSans-65" d="M 863 1572
Q 863 1306 917 1082
Q 972 859 1086 698
Q 1200 538 1378 448
Q 1556 359 1806 359
Q 2172 359 2392 506
Q 2613 653 2691 878
L 3184 738
Q 3131 597 3036 455
Q 2941 313 2781 198
Q 2622 84 2383 10
Q 2144 -63 1806 -63
Q 1056 -63 664 384
Q 272 831 272 1713
Q 272 2188 390 2517
Q 509 2847 715 3053
Q 922 3259 1197 3351
Q 1472 3444 1784 3444
Q 2209 3444 2495 3306
Q 2781 3169 2954 2926
Q 3128 2684 3201 2356
Q 3275 2028 3275 1647
L 3275 1572
L 863 1572
z
M 2694 2003
Q 2647 2538 2422 2783
Q 2197 3028 1775 3028
Q 1634 3028 1479 2983
Q 1325 2938 1194 2822
Q 1063 2706 972 2507
Q 881 2309 869 2003
L 2694 2003
z
" transform="scale(0.015625)"/>
       <path id="LiberationSans-74" d="M 1731 25
Q 1603 -9 1470 -29
Q 1338 -50 1163 -50
Q 488 -50 488 716
L 488 2972
L 97 2972
L 97 3381
L 509 3381
L 675 4138
L 1050 4138
L 1050 3381
L 1675 3381
L 1675 2972
L 1050 2972
L 1050 838
Q 1050 594 1129 495
Q 1209 397 1406 397
Q 1488 397 1564 409
Q 1641 422 1731 441
L 1731 25
z
" transform="scale(0.015625)"/>
       <path id="LiberationSans-20" transform="scale(0.015625)"/>
       <path id="LiberationSans-28" d="M 397 1663
Q 397 2097 462 2494
Q 528 2891 668 3256
Q 809 3622 1028 3965
Q 1247 4309 1550 4638
L 2094 4638
Q 1800 4309 1586 3964
Q 1372 3619 1234 3251
Q 1097 2884 1030 2487
Q 963 2091 963 1656
Q 963 1222 1030 825
Q 1097 428 1234 59
Q 1372 -309 1586 -653
Q 1800 -997 2094 -1325
L 1550 -1325
Q 1247 -997 1028 -653
Q 809 -309 668 56
Q 528 422 462 817
Q 397 1213 397 1650
L 397 1663
z
" transform="scale(0.015625)"/>
       <path id="LiberationSans-64" d="M 2566 544
Q 2409 219 2151 78
Q 1894 -63 1513 -63
Q 872 -63 570 368
Q 269 800 269 1675
Q 269 3444 1513 3444
Q 1897 3444 2153 3303
Q 2409 3163 2566 2856
L 2572 2856
Q 2572 2888 2570 2955
Q 2569 3022 2567 3095
Q 2566 3169 2566 3234
Q 2566 3300 2566 3328
L 2566 4638
L 3128 4638
L 3128 697
Q 3128 575 3129 462
Q 3131 350 3134 256
Q 3138 163 3141 95
Q 3144 28 3147 0
L 2609 0
Q 2603 31 2598 89
Q 2594 147 2589 222
Q 2584 297 2581 380
Q 2578 463 2578 544
L 2566 544
z
M 859 1694
Q 859 1344 903 1094
Q 947 844 1044 683
Q 1141 522 1291 447
Q 1441 372 1656 372
Q 1878 372 2048 444
Q 2219 516 2333 677
Q 2447 838 2506 1097
Q 2566 1356 2566 1731
Q 2566 2091 2506 2339
Q 2447 2588 2331 2741
Q 2216 2894 2048 2961
Q 1881 3028 1663 3028
Q 1456 3028 1306 2956
Q 1156 2884 1056 2725
Q 956 2566 907 2311
Q 859 2056 859 1694
z
" transform="scale(0.015625)"/>
       <path id="LiberationSans-67" d="M 1713 -1328
Q 1422 -1328 1197 -1268
Q 972 -1209 812 -1098
Q 653 -988 553 -834
Q 453 -681 409 -494
L 975 -413
Q 1031 -647 1223 -773
Q 1416 -900 1728 -900
Q 1919 -900 2075 -847
Q 2231 -794 2340 -676
Q 2450 -559 2509 -371
Q 2569 -184 2569 84
L 2569 628
L 2563 628
Q 2500 500 2408 383
Q 2316 266 2183 175
Q 2050 84 1875 29
Q 1700 -25 1475 -25
Q 1153 -25 923 83
Q 694 191 548 406
Q 403 622 336 942
Q 269 1263 269 1684
Q 269 2091 336 2416
Q 403 2741 554 2967
Q 706 3194 948 3314
Q 1191 3434 1538 3434
Q 1897 3434 2161 3270
Q 2425 3106 2569 2803
L 2575 2803
Q 2575 2881 2579 2978
Q 2584 3075 2589 3161
Q 2594 3247 2600 3309
Q 2606 3372 2613 3381
L 3147 3381
Q 3144 3353 3141 3286
Q 3138 3219 3134 3125
Q 3131 3031 3129 2917
Q 3128 2803 3128 2681
L 3128 97
Q 3128 -613 2779 -970
Q 2431 -1328 1713 -1328
z
M 2569 1691
Q 2569 2044 2492 2295
Q 2416 2547 2291 2706
Q 2166 2866 2005 2941
Q 1844 3016 1675 3016
Q 1459 3016 1304 2941
Q 1150 2866 1048 2705
Q 947 2544 898 2292
Q 850 2041 850 1691
Q 850 1325 898 1076
Q 947 828 1047 675
Q 1147 522 1300 456
Q 1453 391 1666 391
Q 1834 391 1995 462
Q 2156 534 2284 690
Q 2413 847 2491 1094
Q 2569 1341 2569 1691
z
" transform="scale(0.015625)"/>
       <path id="LiberationSans-72" d="M 444 0
L 444 2594
Q 444 2700 442 2811
Q 441 2922 437 3025
Q 434 3128 431 3218
Q 428 3309 425 3381
L 956 3381
Q 959 3309 964 3217
Q 969 3125 973 3028
Q 978 2931 979 2842
Q 981 2753 981 2691
L 994 2691
Q 1053 2884 1120 3026
Q 1188 3169 1278 3261
Q 1369 3353 1494 3398
Q 1619 3444 1797 3444
Q 1866 3444 1928 3433
Q 1991 3422 2025 3413
L 2025 2897
Q 1969 2913 1894 2920
Q 1819 2928 1725 2928
Q 1531 2928 1395 2840
Q 1259 2753 1173 2598
Q 1088 2444 1047 2230
Q 1006 2016 1006 1763
L 1006 0
L 444 0
z
" transform="scale(0.015625)"/>
       <path id="LiberationSans-73" d="M 2969 934
Q 2969 697 2876 511
Q 2784 325 2609 198
Q 2434 72 2179 4
Q 1925 -63 1597 -63
Q 1303 -63 1067 -17
Q 831 28 653 128
Q 475 228 354 392
Q 234 556 178 794
L 675 891
Q 747 619 972 492
Q 1197 366 1597 366
Q 1778 366 1929 391
Q 2081 416 2190 477
Q 2300 538 2361 639
Q 2422 741 2422 891
Q 2422 1044 2350 1142
Q 2278 1241 2150 1306
Q 2022 1372 1839 1420
Q 1656 1469 1438 1528
Q 1234 1581 1034 1647
Q 834 1713 673 1820
Q 513 1928 413 2087
Q 313 2247 313 2488
Q 313 2950 642 3192
Q 972 3434 1603 3434
Q 2163 3434 2492 3237
Q 2822 3041 2909 2606
L 2403 2544
Q 2375 2675 2300 2764
Q 2225 2853 2119 2908
Q 2013 2963 1880 2986
Q 1747 3009 1603 3009
Q 1222 3009 1040 2893
Q 859 2778 859 2544
Q 859 2406 926 2317
Q 994 2228 1114 2167
Q 1234 2106 1403 2061
Q 1572 2016 1775 1966
Q 1909 1931 2050 1892
Q 2191 1853 2323 1798
Q 2456 1744 2573 1670
Q 2691 1597 2778 1494
Q 2866 1391 2917 1253
Q 2969 1116 2969 934
z
" transform="scale(0.015625)"/>
       <path id="LiberationSans-29" d="M 1734 1650
Q 1734 1213 1668 817
Q 1603 422 1462 56
Q 1322 -309 1103 -653
Q 884 -997 581 -1325
L 38 -1325
Q 331 -997 545 -653
Q 759 -309 896 59
Q 1034 428 1101 825
Q 1169 1222 1169 1656
Q 1169 2091 1101 2487
Q 1034 2884 896 3251
Q 759 3619 545 3964
Q 331 4309 38 4638
L 581 4638
Q 884 4309 1103 3965
Q 1322 3622 1462 3256
Q 1603 2891 1668 2494
Q 1734 2097 1734 1663
L 1734 1650
z
" transform="scale(0.015625)"/>
      </defs>
      <use xlink:href="#LiberationSans-42"/>
      <use xlink:href="#LiberationSans-65" x="66.699219"/>
      <use xlink:href="#LiberationSans-74" x="122.314453"/>
      <use xlink:href="#LiberationSans-61" x="150.097656"/>
      <use xlink:href="#LiberationSans-20" x="205.712891"/>
      <use xlink:href="#LiberationSans-28" x="233.496094"/>
      <use xlink:href="#LiberationSans-64" x="266.796875"/>
      <use xlink:href="#LiberationSans-65" x="322.412109"/>
      <use xlink:href="#LiberationSans-67" x="378.027344"/>
      <use xlink:href="#LiberationSans-72" x="433.642578"/>
      <use xlink:href="#LiberationSans-65" x="466.943359"/>
      <use xlink:href="#LiberationSans-65" x="522.558594"/>
      <use xlink:href="#LiberationSans-73" x="578.173828"/>
      <use xlink:href="#LiberationSans-29" x="628.173828"/>
     </g>
    </g>
   </g>
   <g id="line2d_31">
    <path d="M 115.363636 68.988065
L 120.953418 70.774969
L 127.940646 73.718531
L 134.927874 77.554267
L 136.325319 78.35124
L 143.312547 83.244099
L 146.107438 85.298002
L 154.492111 92.537283
L 164.27423 102.492477
L 168.466566 107.168283
L 178.248685 119.329836
L 188.030804 133.02644
L 193.620586 141.462642
L 199.210368 150.353541
L 204.80015 159.671213
L 210.389932 169.381513
L 217.37716 182.011986
L 224.364388 195.105574
L 235.543952 216.654123
L 260.697971 264.845936
L 264.890308 272.520844
L 269.082645 280.216919
L 283.0571 304.189218
L 287.249437 310.767874
L 291.441773 317.339702
L 299.826446 329.509523
L 304.018783 334.849114
L 305.416228 336.550679
L 306.813674 338.432415
L 311.006011 343.294377
L 312.403456 344.680974
L 313.800902 346.487601
L 319.390684 352.030554
L 320.788129 353.401058
L 327.775357 359.360079
L 330.570248 361.180946
L 333.365139 363.047964
L 334.762585 363.727658
L 336.16003 364.557582
L 337.557476 365.145598
L 340.352367 366.663673
L 345.942149 368.373299
L 350.134485 369.116944
L 352.929376 369.325275
L 355.724267 369.348425
L 358.519159 369.186384
L 359.916604 369.035934
L 364.108941 368.22292
L 369.698723 366.421014
L 371.096168 365.373313
L 373.891059 364.246251
L 375.288505 363.393187
L 376.68595 362.707145
L 378.083396 361.571869
L 380.878287 359.796363
L 382.275733 358.675282
L 383.673178 357.746276
L 386.468069 355.133251
L 387.865515 354.071109
L 389.26296 352.842231
L 390.660406 351.329387
L 394.852742 347.260994
L 396.250188 345.820008
L 397.647633 343.992995
L 401.83997 339.30472
L 408.827198 330.371392
L 410.224643 328.225494
L 413.019534 324.346153
L 417.211871 318.407934
L 424.199098 307.557875
L 433.981217 291.322879
L 443.763336 273.762813
L 446.558227 268.704041
L 466.122464 231.525397
L 489.879038 185.905243
L 496.866266 173.133706
L 503.853494 160.888861
L 509.443276 151.525593
L 515.033058 142.584614
L 520.62284 134.094566
L 523.417731 129.943175
L 529.007513 122.164591
L 533.19985 116.659747
L 538.789632 109.670146
L 542.981968 104.845813
L 548.571751 98.772135
L 554.161533 93.234912
L 561.14876 86.991397
L 566.738542 82.691082
L 573.72577 78.011769
L 575.123216 77.105321
L 582.110443 73.487699
L 584.905334 72.134662
L 587.700225 71.055273
L 589.097671 70.503547
L 591.892562 69.640287
L 594.687453 68.788591
L 597.482344 68.214916
L 601.674681 67.425335
L 603.072126 67.234588
L 605.867017 67.096117
L 610.059354 66.96
L 614.25169 67.150552
L 619.841473 67.779368
L 622.636364 68.377581
L 622.636364 68.377581
" clip-path="url(#pef18c6fa19)" style="fill: none; stroke: #e24a33; stroke-width: 1.5; stroke-linecap: round"/>
   </g>
   <g id="patch_3">
    <path d="M 90 384.48
L 90 51.84
" style="fill: none; stroke: #ffffff; stroke-linejoin: miter; stroke-linecap: square"/>
   </g>
   <g id="patch_4">
    <path d="M 648 384.48
L 648 51.84
" style="fill: none; stroke: #ffffff; stroke-linejoin: miter; stroke-linecap: square"/>
   </g>
   <g id="patch_5">
    <path d="M 90 384.48
L 648 384.48
" style="fill: none; stroke: #ffffff; stroke-linejoin: miter; stroke-linecap: square"/>
   </g>
   <g id="patch_6">
    <path d="M 90 51.84
L 648 51.84
" style="fill: none; stroke: #ffffff; stroke-linejoin: miter; stroke-linecap: square"/>
   </g>
   <g id="text_18">
    <!-- Optimal Solar Panel Orientation -->
    <g style="fill: #262626" transform="translate(247.50675 45.84) scale(0.1728 -0.1728)">
     <defs>
      <path id="LiberationSans-4f" d="M 4672 2222
Q 4672 1706 4523 1284
Q 4375 863 4094 563
Q 3813 263 3406 100
Q 3000 -63 2484 -63
Q 1941 -63 1531 107
Q 1122 278 850 583
Q 578 888 440 1306
Q 303 1725 303 2222
Q 303 2738 447 3153
Q 591 3569 869 3861
Q 1147 4153 1555 4311
Q 1963 4469 2491 4469
Q 3016 4469 3423 4309
Q 3831 4150 4107 3856
Q 4384 3563 4528 3147
Q 4672 2731 4672 2222
z
M 4063 2222
Q 4063 2619 3961 2944
Q 3859 3269 3661 3500
Q 3463 3731 3169 3856
Q 2875 3981 2491 3981
Q 2097 3981 1800 3856
Q 1503 3731 1304 3500
Q 1106 3269 1007 2944
Q 909 2619 909 2222
Q 909 1825 1011 1495
Q 1113 1166 1311 927
Q 1509 688 1804 555
Q 2100 422 2484 422
Q 2897 422 3195 556
Q 3494 691 3686 930
Q 3878 1169 3970 1500
Q 4063 1831 4063 2222
z
" transform="scale(0.015625)"/>
      <path id="LiberationSans-70" d="M 3291 1706
Q 3291 1322 3228 997
Q 3166 672 3020 437
Q 2875 203 2636 70
Q 2397 -63 2047 -63
Q 1684 -63 1412 75
Q 1141 213 997 525
L 981 525
Q 984 519 986 469
Q 988 419 989 344
Q 991 269 992 176
Q 994 84 994 -6
L 994 -1328
L 431 -1328
L 431 2691
Q 431 2813 429 2925
Q 428 3038 425 3130
Q 422 3222 419 3287
Q 416 3353 413 3381
L 956 3381
Q 959 3372 964 3315
Q 969 3259 973 3179
Q 978 3100 983 3009
Q 988 2919 988 2838
L 1000 2838
Q 1078 3000 1178 3114
Q 1278 3228 1406 3301
Q 1534 3375 1692 3408
Q 1850 3441 2047 3441
Q 2397 3441 2636 3316
Q 2875 3191 3020 2964
Q 3166 2738 3228 2417
Q 3291 2097 3291 1706
z
M 2700 1694
Q 2700 2006 2662 2250
Q 2625 2494 2533 2662
Q 2441 2831 2287 2918
Q 2134 3006 1903 3006
Q 1716 3006 1550 2953
Q 1384 2900 1261 2750
Q 1138 2600 1066 2336
Q 994 2072 994 1650
Q 994 1291 1053 1042
Q 1113 794 1227 641
Q 1341 488 1509 420
Q 1678 353 1897 353
Q 2131 353 2286 443
Q 2441 534 2533 706
Q 2625 878 2662 1126
Q 2700 1375 2700 1694
z
" transform="scale(0.015625)"/>
      <path id="LiberationSans-69" d="M 428 4100
L 428 4638
L 991 4638
L 991 4100
L 428 4100
z
M 428 0
L 428 3381
L 991 3381
L 991 0
L 428 0
z
" transform="scale(0.015625)"/>
      <path id="LiberationSans-6d" d="M 2400 0
L 2400 2144
Q 2400 2391 2369 2556
Q 2338 2722 2264 2823
Q 2191 2925 2072 2967
Q 1953 3009 1781 3009
Q 1603 3009 1459 2939
Q 1316 2869 1214 2736
Q 1113 2603 1058 2408
Q 1003 2213 1003 1959
L 1003 0
L 444 0
L 444 2659
Q 444 2766 442 2883
Q 441 3000 437 3104
Q 434 3209 431 3284
Q 428 3359 425 3381
L 956 3381
Q 959 3366 962 3297
Q 966 3228 970 3139
Q 975 3050 978 2958
Q 981 2866 981 2803
L 991 2803
Q 1066 2950 1153 3069
Q 1241 3188 1358 3270
Q 1475 3353 1626 3398
Q 1778 3444 1978 3444
Q 2363 3444 2586 3291
Q 2809 3138 2897 2803
L 2906 2803
Q 2981 2950 3075 3069
Q 3169 3188 3294 3270
Q 3419 3353 3575 3398
Q 3731 3444 3931 3444
Q 4188 3444 4373 3375
Q 4559 3306 4678 3162
Q 4797 3019 4853 2792
Q 4909 2566 4909 2253
L 4909 0
L 4353 0
L 4353 2144
Q 4353 2391 4322 2556
Q 4291 2722 4217 2823
Q 4144 2925 4025 2967
Q 3906 3009 3734 3009
Q 3556 3009 3412 2942
Q 3269 2875 3167 2744
Q 3066 2613 3011 2416
Q 2956 2219 2956 1959
L 2956 0
L 2400 0
z
" transform="scale(0.015625)"/>
      <path id="LiberationSans-6c" d="M 431 0
L 431 4638
L 994 4638
L 994 0
L 431 0
z
" transform="scale(0.015625)"/>
      <path id="LiberationSans-53" d="M 3975 1216
Q 3975 938 3867 703
Q 3759 469 3534 298
Q 3309 128 2967 32
Q 2625 -63 2156 -63
Q 1334 -63 875 225
Q 416 513 291 1056
L 869 1172
Q 913 1000 1003 859
Q 1094 719 1248 617
Q 1403 516 1631 459
Q 1859 403 2178 403
Q 2444 403 2666 448
Q 2888 494 3047 587
Q 3206 681 3295 829
Q 3384 978 3384 1184
Q 3384 1400 3286 1534
Q 3188 1669 3009 1756
Q 2831 1844 2584 1903
Q 2338 1963 2038 2031
Q 1853 2072 1667 2120
Q 1481 2169 1311 2236
Q 1141 2303 991 2393
Q 841 2484 731 2611
Q 622 2738 559 2905
Q 497 3072 497 3291
Q 497 3603 623 3826
Q 750 4050 975 4194
Q 1200 4338 1506 4403
Q 1813 4469 2169 4469
Q 2578 4469 2868 4405
Q 3159 4341 3359 4212
Q 3559 4084 3679 3895
Q 3800 3706 3872 3456
L 3284 3353
Q 3241 3513 3158 3638
Q 3075 3763 2940 3847
Q 2806 3931 2614 3975
Q 2422 4019 2163 4019
Q 1856 4019 1648 3964
Q 1441 3909 1314 3815
Q 1188 3722 1133 3595
Q 1078 3469 1078 3322
Q 1078 3125 1176 2998
Q 1275 2872 1444 2787
Q 1613 2703 1834 2647
Q 2056 2591 2306 2534
Q 2509 2488 2711 2439
Q 2913 2391 3097 2323
Q 3281 2256 3442 2165
Q 3603 2075 3722 1944
Q 3841 1813 3908 1634
Q 3975 1456 3975 1216
z
" transform="scale(0.015625)"/>
      <path id="LiberationSans-6f" d="M 3291 1694
Q 3291 806 2900 371
Q 2509 -63 1766 -63
Q 1413 -63 1134 43
Q 856 150 664 369
Q 472 588 370 917
Q 269 1247 269 1694
Q 269 3444 1784 3444
Q 2178 3444 2464 3334
Q 2750 3225 2933 3006
Q 3116 2788 3203 2459
Q 3291 2131 3291 1694
z
M 2700 1694
Q 2700 2088 2639 2344
Q 2578 2600 2461 2753
Q 2344 2906 2175 2967
Q 2006 3028 1794 3028
Q 1578 3028 1404 2964
Q 1231 2900 1109 2745
Q 988 2591 923 2334
Q 859 2078 859 1694
Q 859 1300 928 1042
Q 997 784 1117 631
Q 1238 478 1402 415
Q 1566 353 1759 353
Q 1975 353 2150 414
Q 2325 475 2447 628
Q 2569 781 2634 1040
Q 2700 1300 2700 1694
z
" transform="scale(0.015625)"/>
      <path id="LiberationSans-50" d="M 3931 3078
Q 3931 2791 3836 2542
Q 3741 2294 3552 2111
Q 3363 1928 3078 1822
Q 2794 1716 2416 1716
L 1122 1716
L 1122 0
L 525 0
L 525 4403
L 2378 4403
Q 2769 4403 3059 4308
Q 3350 4213 3544 4039
Q 3738 3866 3834 3620
Q 3931 3375 3931 3078
z
M 3331 3072
Q 3331 3491 3075 3708
Q 2819 3925 2306 3925
L 1122 3925
L 1122 2188
L 2331 2188
Q 2847 2188 3089 2416
Q 3331 2644 3331 3072
z
" transform="scale(0.015625)"/>
      <path id="LiberationSans-6e" d="M 2578 0
L 2578 2144
Q 2578 2391 2542 2556
Q 2506 2722 2425 2823
Q 2344 2925 2211 2967
Q 2078 3009 1881 3009
Q 1681 3009 1520 2939
Q 1359 2869 1245 2736
Q 1131 2603 1068 2408
Q 1006 2213 1006 1959
L 1006 0
L 444 0
L 444 2659
Q 444 2766 442 2883
Q 441 3000 437 3104
Q 434 3209 431 3284
Q 428 3359 425 3381
L 956 3381
Q 959 3366 962 3297
Q 966 3228 970 3139
Q 975 3050 978 2958
Q 981 2866 981 2803
L 991 2803
Q 1072 2950 1169 3069
Q 1266 3188 1394 3270
Q 1522 3353 1687 3398
Q 1853 3444 2072 3444
Q 2353 3444 2556 3375
Q 2759 3306 2890 3162
Q 3022 3019 3083 2792
Q 3144 2566 3144 2253
L 3144 0
L 2578 0
z
" transform="scale(0.015625)"/>
     </defs>
     <use xlink:href="#LiberationSans-4f"/>
     <use xlink:href="#LiberationSans-70" x="77.783203"/>
     <use xlink:href="#LiberationSans-74" x="133.398438"/>
     <use xlink:href="#LiberationSans-69" x="161.181641"/>
     <use xlink:href="#LiberationSans-6d" x="183.398438"/>
     <use xlink:href="#LiberationSans-61" x="266.699219"/>
     <use xlink:href="#LiberationSans-6c" x="322.314453"/>
     <use xlink:href="#LiberationSans-20" x="344.53125"/>
     <use xlink:href="#LiberationSans-53" x="372.314453"/>
     <use xlink:href="#LiberationSans-6f" x="439.013672"/>
     <use xlink:href="#LiberationSans-6c" x="494.628906"/>
     <use xlink:href="#LiberationSans-61" x="516.845703"/>
     <use xlink:href="#LiberationSans-72" x="572.460938"/>
     <use xlink:href="#LiberationSans-20" x="605.761719"/>
     <use xlink:href="#LiberationSans-50" x="633.544922"/>
     <use xlink:href="#LiberationSans-61" x="700.244141"/>
     <use xlink:href="#LiberationSans-6e" x="755.859375"/>
     <use xlink:href="#LiberationSans-65" x="811.474609"/>
     <use xlink:href="#LiberationSans-6c" x="867.089844"/>
     <use xlink:href="#LiberationSans-20" x="889.306641"/>
     <use xlink:href="#LiberationSans-4f" x="917.089844"/>
     <use xlink:href="#LiberationSans-72" x="994.873047"/>
     <use xlink:href="#LiberationSans-69" x="1028.173828"/>
     <use xlink:href="#LiberationSans-65" x="1050.390625"/>
     <use xlink:href="#LiberationSans-6e" x="1106.005859"/>
     <use xlink:href="#LiberationSans-74" x="1161.621094"/>
     <use xlink:href="#LiberationSans-61" x="1189.404297"/>
     <use xlink:href="#LiberationSans-74" x="1245.019531"/>
     <use xlink:href="#LiberationSans-69" x="1272.802734"/>
     <use xlink:href="#LiberationSans-6f" x="1295.019531"/>
     <use xlink:href="#LiberationSans-6e" x="1350.634766"/>
    </g>
   </g>
  </g>
 </g>
 <defs>
  <clipPath id="pef18c6fa19">
   <rect x="90" y="51.84" width="558" height="332.64"/>
  </clipPath>
 </defs>
</svg>
